<svg xmlns="http://www.w3.org/2000/svg" xmlns:svg="http://www.w3.org/2000/svg" xmlns:xlink="http://www.w3.org/1999/xlink" id="svg3273" width="64" height="22" version="1.1"><defs id="defs3275"><linearGradient id="linearGradient3883"><stop id="stop3885" offset="0" style="stop-color:#000;stop-opacity:1"/><stop id="stop3887" offset="1" style="stop-color:#000;stop-opacity:1"/></linearGradient><linearGradient id="linearGradient4649"><stop id="stop4651" offset="0" style="stop-color:#000;stop-opacity:0"/><stop id="stop4653" offset="1" style="stop-color:#000;stop-opacity:.27450982"/></linearGradient><linearGradient id="linearGradient3921"><stop style="stop-color:#fff;stop-opacity:0" id="stop3923" offset="0"/><stop style="stop-color:#fff;stop-opacity:.15686275" id="stop3925" offset="1"/></linearGradient><linearGradient id="linearGradient3985"><stop style="stop-color:#fff;stop-opacity:1" id="stop3987" offset="0"/><stop style="stop-color:#fff;stop-opacity:0" id="stop3989" offset="1"/></linearGradient><linearGradient id="linearGradient3938"><stop style="stop-color:#a0a0a0;stop-opacity:1" id="stop3940" offset="0"/><stop style="stop-color:#dcdcdc;stop-opacity:1" id="stop3942" offset="1"/></linearGradient><linearGradient id="linearGradient4095"><stop id="stop4097" offset="0" style="stop-color:#131313;stop-opacity:1"/><stop id="stop4099" offset="1" style="stop-color:#131313;stop-opacity:0"/></linearGradient><linearGradient id="linearGradient3152" x1="40.813" x2="40.813" y1="19.5" y2="-.5" gradientTransform="translate(-64.499996,-20.499994)" gradientUnits="userSpaceOnUse" xlink:href="#linearGradient3921"/><linearGradient id="linearGradient3128" x1="48" x2="48" y1="21" y2="2" gradientTransform="translate(-32,0)" gradientUnits="userSpaceOnUse" xlink:href="#linearGradient3938"/><linearGradient id="linearGradient3990-9"><stop id="stop3992-5" offset="0" style="stop-color:#fff;stop-opacity:1"/><stop id="stop3994-0" offset="1" style="stop-color:#fff;stop-opacity:0"/></linearGradient><linearGradient id="linearGradient3077-4" x1="41" x2="41" y1="1" y2="39" gradientTransform="matrix(1,0,0,-1,-32,22)" gradientUnits="userSpaceOnUse" xlink:href="#linearGradient4095"/><radialGradient id="radialGradient4013" cx="42.5" cy="11" r=".5" fx="42.5" fy="11" gradientTransform="matrix(11,0,0,10,-448,-99)" gradientUnits="userSpaceOnUse" xlink:href="#linearGradient3988"/><linearGradient id="linearGradient3988"><stop id="stop3990" offset="0" style="stop-color:#000;stop-opacity:1"/><stop style="stop-color:#000;stop-opacity:.70588237" id="stop3997" offset=".6"/><stop id="stop3993" offset="1" style="stop-color:#000;stop-opacity:0"/></linearGradient><radialGradient id="radialGradient4011" cx="42.5" cy="11" r=".5" fx="42.5" fy="11" gradientTransform="matrix(11,0,0,10,-447,-99)" gradientUnits="userSpaceOnUse" xlink:href="#linearGradient3976"/><linearGradient id="linearGradient3976"><stop style="stop-color:#fff;stop-opacity:1" id="stop3978" offset="0"/><stop id="stop3995" offset=".6" style="stop-color:#fff;stop-opacity:.70588237"/><stop style="stop-color:#fff;stop-opacity:0" id="stop3980" offset="1"/></linearGradient><radialGradient id="radialGradient4005" cx="42.5" cy="11" r=".5" fx="42.5" fy="11" gradientTransform="matrix(11,0,0,10,-452,-99)" gradientUnits="userSpaceOnUse" xlink:href="#linearGradient3988"/><radialGradient id="radialGradient4003" cx="42.5" cy="11" r=".5" fx="42.5" fy="11" gradientTransform="matrix(11,0,0,10,-451,-99)" gradientUnits="userSpaceOnUse" xlink:href="#linearGradient3976"/><radialGradient id="radialGradient3986" cx="42.5" cy="11" r=".5" fx="42.5" fy="11" gradientTransform="matrix(11,0,0,10,-456,-99)" gradientUnits="userSpaceOnUse" xlink:href="#linearGradient3988"/><radialGradient id="radialGradient4077" cx="42.5" cy="11" r=".5" fx="42.5" fy="11" gradientTransform="matrix(11,0,0,10,-455,-99)" gradientUnits="userSpaceOnUse" xlink:href="#linearGradient3976"/><linearGradient id="linearGradient3951" x1="48" x2="48" y1="21" y2="2" gradientTransform="translate(-32,0)" gradientUnits="userSpaceOnUse" xlink:href="#linearGradient3938"/><linearGradient id="linearGradient3953" x1="41" x2="41" y1="1" y2="28" gradientTransform="translate(-32,0)" gradientUnits="userSpaceOnUse" xlink:href="#linearGradient3990-9"/><radialGradient id="radialGradient3955" cx="42.5" cy="11" r=".5" fx="42.5" fy="11" gradientTransform="matrix(11,0,0,10,-455,-99)" gradientUnits="userSpaceOnUse" xlink:href="#linearGradient3976"/><radialGradient id="radialGradient3957" cx="42.5" cy="11" r=".5" fx="42.5" fy="11" gradientTransform="matrix(11,0,0,10,-456,-99)" gradientUnits="userSpaceOnUse" xlink:href="#linearGradient3988"/><radialGradient id="radialGradient3959" cx="42.5" cy="11" r=".5" fx="42.5" fy="11" gradientTransform="matrix(11,0,0,10,-451,-99)" gradientUnits="userSpaceOnUse" xlink:href="#linearGradient3976"/><radialGradient id="radialGradient3961" cx="42.5" cy="11" r=".5" fx="42.5" fy="11" gradientTransform="matrix(11,0,0,10,-452,-99)" gradientUnits="userSpaceOnUse" xlink:href="#linearGradient3988"/><radialGradient id="radialGradient3963" cx="42.5" cy="11" r=".5" fx="42.5" fy="11" gradientTransform="matrix(11,0,0,10,-447,-99)" gradientUnits="userSpaceOnUse" xlink:href="#linearGradient3976"/><radialGradient id="radialGradient3965" cx="42.5" cy="11" r=".5" fx="42.5" fy="11" gradientTransform="matrix(11,0,0,10,-448,-99)" gradientUnits="userSpaceOnUse" xlink:href="#linearGradient3988"/><linearGradient id="linearGradient3971" x1="48" x2="48" y1="21" y2="2" gradientTransform="translate(-32,0)" gradientUnits="userSpaceOnUse" xlink:href="#linearGradient3938"/><linearGradient id="linearGradient3975" x1="48" x2="48" y1="21" y2="2" gradientTransform="translate(-32,0)" gradientUnits="userSpaceOnUse" xlink:href="#linearGradient3938"/><linearGradient id="linearGradient3978" x1="48" x2="48" y1="21" y2="2" gradientTransform="translate(-32,0)" gradientUnits="userSpaceOnUse" xlink:href="#linearGradient3938"/><linearGradient id="linearGradient3983" x1="48" x2="48" y1="21" y2="2" gradientTransform="translate(-32,0)" gradientUnits="userSpaceOnUse" xlink:href="#linearGradient3938"/><linearGradient id="linearGradient4062" x1="48" x2="48" y1="21" y2="2" gradientTransform="translate(-32,0)" gradientUnits="userSpaceOnUse" xlink:href="#linearGradient3938"/><linearGradient id="linearGradient4066" x1="48" x2="48" y1="21" y2="2" gradientTransform="translate(-32,0)" gradientUnits="userSpaceOnUse" xlink:href="#linearGradient3938"/><linearGradient id="linearGradient4071" x1="48" x2="48" y1="21" y2="2" gradientTransform="translate(-32,0)" gradientUnits="userSpaceOnUse" xlink:href="#linearGradient3938"/><linearGradient id="linearGradient4074" x1="48" x2="48" y1="21" y2="-4" gradientTransform="matrix(1,0,0,-1,-32,22)" gradientUnits="userSpaceOnUse" xlink:href="#linearGradient3985"/><radialGradient id="radialGradient4013-9" cx="42.5" cy="11" r=".5" fx="42.5" fy="11" gradientTransform="matrix(11,0,0,10,-448,-99)" gradientUnits="userSpaceOnUse" xlink:href="#linearGradient3988-5"/><linearGradient id="linearGradient3988-5"><stop id="stop3990-8" offset="0" style="stop-color:#000;stop-opacity:1"/><stop style="stop-color:#000;stop-opacity:.70588237" id="stop3997-5" offset=".6"/><stop id="stop3993-8" offset="1" style="stop-color:#000;stop-opacity:0"/></linearGradient><radialGradient id="radialGradient4011-7" cx="42.5" cy="11" r=".5" fx="42.5" fy="11" gradientTransform="matrix(11,0,0,10,-447,-99)" gradientUnits="userSpaceOnUse" xlink:href="#linearGradient3976-2"/><linearGradient id="linearGradient3976-2"><stop style="stop-color:#fff;stop-opacity:1" id="stop3978-8" offset="0"/><stop id="stop3995-9" offset=".6" style="stop-color:#fff;stop-opacity:.70588237"/><stop style="stop-color:#fff;stop-opacity:0" id="stop3980-6" offset="1"/></linearGradient><radialGradient id="radialGradient4005-9" cx="42.5" cy="11" r=".5" fx="42.5" fy="11" gradientTransform="matrix(11,0,0,10,-452,-99)" gradientUnits="userSpaceOnUse" xlink:href="#linearGradient3988-5"/><radialGradient id="radialGradient4003-1" cx="42.5" cy="11" r=".5" fx="42.5" fy="11" gradientTransform="matrix(11,0,0,10,-451,-99)" gradientUnits="userSpaceOnUse" xlink:href="#linearGradient3976-2"/><radialGradient id="radialGradient3986-1" cx="42.5" cy="11" r=".5" fx="42.5" fy="11" gradientTransform="matrix(11,0,0,10,-456,-99)" gradientUnits="userSpaceOnUse" xlink:href="#linearGradient3988-5"/><radialGradient id="radialGradient4077-8" cx="42.5" cy="11" r=".5" fx="42.5" fy="11" gradientTransform="matrix(11,0,0,10,-455,-99)" gradientUnits="userSpaceOnUse" xlink:href="#linearGradient3976-2"/><linearGradient id="linearGradient3077-4-9" x1="41" x2="41" y1="1" y2="28" gradientTransform="translate(-32,0)" gradientUnits="userSpaceOnUse" xlink:href="#linearGradient3990-9-4"/><linearGradient id="linearGradient3990-9-4"><stop id="stop3992-5-7" offset="0" style="stop-color:#fff;stop-opacity:1"/><stop id="stop3994-0-8" offset="1" style="stop-color:#fff;stop-opacity:0"/></linearGradient><linearGradient id="linearGradient3938-4"><stop style="stop-color:#a0a0a0;stop-opacity:1" id="stop3940-9" offset="0"/><stop style="stop-color:#dcdcdc;stop-opacity:1" id="stop3942-9" offset="1"/></linearGradient><linearGradient id="linearGradient3228" x1="48" x2="48" y1="21" y2="2" gradientTransform="translate(-32,0)" gradientUnits="userSpaceOnUse" xlink:href="#linearGradient3938-4"/><linearGradient id="linearGradient4265" x1="48" x2="48" y1="21" y2="2" gradientTransform="translate(-32,0)" gradientUnits="userSpaceOnUse" xlink:href="#linearGradient3938-4"/><radialGradient id="radialGradient4013-9-2" cx="42.5" cy="11" r=".5" fx="42.5" fy="11" gradientTransform="matrix(11,0,0,10,-447,-99)" gradientUnits="userSpaceOnUse" xlink:href="#linearGradient3988-5-7"/><linearGradient id="linearGradient3988-5-7"><stop id="stop3990-8-2" offset="0" style="stop-color:#000;stop-opacity:1"/><stop style="stop-color:#000;stop-opacity:.70588237" id="stop3997-5-7" offset=".6"/><stop id="stop3993-8-6" offset="1" style="stop-color:#000;stop-opacity:0"/></linearGradient><radialGradient id="radialGradient4011-7-2" cx="42.5" cy="11" r=".5" fx="42.5" fy="11" gradientTransform="matrix(11,0,0,10,-446,-99)" gradientUnits="userSpaceOnUse" xlink:href="#linearGradient3976-2-0"/><linearGradient id="linearGradient3976-2-0"><stop style="stop-color:#fff;stop-opacity:1" id="stop3978-8-5" offset="0"/><stop id="stop3995-9-0" offset=".6" style="stop-color:#fff;stop-opacity:.70588237"/><stop style="stop-color:#fff;stop-opacity:0" id="stop3980-6-1" offset="1"/></linearGradient><radialGradient id="radialGradient4005-9-8" cx="42.5" cy="11" r=".5" fx="42.5" fy="11" gradientTransform="matrix(11,0,0,10,-451,-99)" gradientUnits="userSpaceOnUse" xlink:href="#linearGradient3988-5-7"/><radialGradient id="radialGradient4003-1-6" cx="42.5" cy="11" r=".5" fx="42.5" fy="11" gradientTransform="matrix(11,0,0,10,-450,-99)" gradientUnits="userSpaceOnUse" xlink:href="#linearGradient3976-2-0"/><radialGradient id="radialGradient3986-1-3" cx="42.5" cy="11" r=".5" fx="42.5" fy="11" gradientTransform="matrix(11,0,0,10,-455,-99)" gradientUnits="userSpaceOnUse" xlink:href="#linearGradient3988-5-7"/><radialGradient id="radialGradient4077-8-1" cx="42.5" cy="11" r=".5" fx="42.5" fy="11" gradientTransform="matrix(11,0,0,10,-454,-99)" gradientUnits="userSpaceOnUse" xlink:href="#linearGradient3976-2-0"/><linearGradient id="linearGradient3077-4-9-4" x1="41" x2="41" y1="1" y2="28" gradientTransform="translate(-32,-1)" gradientUnits="userSpaceOnUse" xlink:href="#linearGradient3990-9-4-5"/><linearGradient id="linearGradient3990-9-4-5"><stop id="stop3992-5-7-1" offset="0" style="stop-color:#0f0;stop-opacity:1"/><stop id="stop3994-0-8-2" offset="1" style="stop-color:#0f0;stop-opacity:0"/></linearGradient><linearGradient id="linearGradient3228-0" x1="48" x2="48" y1="21" y2="2" gradientTransform="translate(-32,-1)" gradientUnits="userSpaceOnUse" xlink:href="#linearGradient3938-4-7"/><linearGradient id="linearGradient3938-4-7"><stop style="stop-color:#000;stop-opacity:1" id="stop3940-9-2" offset="0"/><stop style="stop-color:#000;stop-opacity:1" id="stop3942-9-2" offset="1"/></linearGradient><linearGradient id="linearGradient3152-1" x1="40.813" x2="40.813" y1="18.5" y2=".5" gradientTransform="translate(-64.499996,-20.499994)" gradientUnits="userSpaceOnUse" xlink:href="#linearGradient3921-5"/><linearGradient id="linearGradient3921-5"><stop style="stop-color:#fff;stop-opacity:0" id="stop3923-6" offset="0"/><stop style="stop-color:#fff;stop-opacity:.15686275" id="stop3925-4" offset="1"/></linearGradient><filter id="filter4131-3" width="1.24" height="1.24" x="-.12" y="-.12" color-interpolation-filters="sRGB"><feGaussianBlur id="feGaussianBlur4133-2" stdDeviation=".5"/></filter><linearGradient id="linearGradient4525" x1="40.813" x2="40.813" y1="18.5" y2=".5" gradientTransform="translate(-64.499996,-20.499994)" gradientUnits="userSpaceOnUse" xlink:href="#linearGradient3921-5"/><linearGradient id="linearGradient4529" x1="48" x2="48" y1="21" y2="2" gradientTransform="translate(-32,-1)" gradientUnits="userSpaceOnUse" xlink:href="#linearGradient3938-4-7"/><linearGradient id="linearGradient4550" x1="40.813" x2="40.813" y1="18.5" y2=".5" gradientTransform="matrix(-1,0,0,1,64.499996,1.500006)" gradientUnits="userSpaceOnUse" xlink:href="#linearGradient4649"/><linearGradient id="linearGradient4443" x1="40.813" x2="40.813" y1="18.5" y2=".5" gradientTransform="matrix(-1,0,0,-1,64.499996,20.499994)" gradientUnits="userSpaceOnUse" xlink:href="#linearGradient3921-5-9"/><linearGradient id="linearGradient3921-5-9"><stop style="stop-color:#fff;stop-opacity:0" id="stop3923-6-1" offset="0"/><stop style="stop-color:#fff;stop-opacity:.11764706" id="stop3925-4-6" offset="1"/></linearGradient><linearGradient id="linearGradient4615" x1="40.813" x2="40.813" y1="18.5" y2=".5" gradientTransform="matrix(-1,0,0,-1,64.499996,20.499994)" gradientUnits="userSpaceOnUse" xlink:href="#linearGradient3921-5-9"/><linearGradient id="linearGradient4621" x1="40.813" x2="40.813" y1="18.5" y2=".5" gradientTransform="matrix(-1,0,0,-1,64.499996,20.499994)" gradientUnits="userSpaceOnUse" xlink:href="#linearGradient3921-5-9-9"/><linearGradient id="linearGradient3921-5-9-9"><stop style="stop-color:#333;stop-opacity:1" id="stop3923-6-1-6" offset="0"/><stop style="stop-color:#555;stop-opacity:1" id="stop3925-4-6-6" offset="1"/></linearGradient><linearGradient id="linearGradient4641" x1="40.813" x2="40.813" y1="18.5" y2=".5" gradientTransform="matrix(-1,0,0,-1,64.499996,20.499994)" gradientUnits="userSpaceOnUse" xlink:href="#linearGradient3883"/></defs><metadata id="metadata3278"/><g id="layer2"><path style="color:#000;fill:url(#linearGradient4641);fill-opacity:1;stroke:none;stroke-width:.99999994;marker:none;visibility:visible;display:inline;overflow:visible;enable-background:accumulate" id="path4619" d="M 5,3 C 3.8775991,3 3,3.8775991 3,5 l 0,12 c 0,1.122401 0.8775991,2 2,2 l 54,0 c 1.122401,0 2,-0.877599 2,-2 L 61,5 C 61,3.8775991 60.122401,3 59,3 L 5,3 z"/><path style="opacity:.07999998;color:#000;fill:#000;fill-opacity:1;stroke:none;stroke-width:.99999994;marker:none;visibility:visible;display:inline;overflow:visible;enable-background:accumulate" id="rect4052" d="M 5,2 C 3.338,2 2,3.338 2,5 l 0,12 c 0,1.662 1.338,3 3,3 l 54,0 c 1.662,0 3,-1.338 3,-3 L 62,5 C 62,3.338 60.662,2 59,2 z m 0,3 54,0 0,12 -54,0 z"/><path style="opacity:.12000002;color:#000;fill:#000;fill-opacity:1;stroke:none;stroke-width:.99999994;marker:none;visibility:visible;display:inline;overflow:visible;enable-background:accumulate" id="rect4042" d="M 5,2 C 3.338,2 2,3.338 2,5 l 0,12 c 0,1.662 1.338,3 3,3 l 54,0 c 1.662,0 3,-1.338 3,-3 L 62,5 C 62,3.338 60.662,2 59,2 z m 0,2 54,0 c 0.5825,0 1,0.4175 1,1 l 0,12 c 0,0.5825 -0.4175,1 -1,1 L 5,18 C 4.4175,18 4,17.5825 4,17 L 4,5 C 4,4.4175 4.4175,4 5,4 z"/><path style="opacity:.2;color:#000;fill:#0f0;fill-opacity:1;stroke:none;stroke-width:.99999994;marker:none;visibility:visible;display:inline;overflow:visible;enable-background:accumulate" id="rect4038" d="M 5,2 C 3.338,2 2,3.338 2,5 l 0,12 c 0,1.662 1.338,3 3,3 l 54,0 c 1.662,0 3,-1.338 3,-3 L 62,5 C 62,3.338 60.662,2 59,2 z m 0,1 54,0 c 1.117387,0 2,0.882613 2,2 l 0,12 c 0,1.117387 -0.882613,2 -2,2 L 5,19 C 3.8826128,19 3,18.117387 3,17 L 3,5 C 3,3.882613 3.8826128,3 5,3 z"/><g id="g4655" transform="translate(-1,0)" style="opacity:.5"><path style="opacity:.5;color:#000;fill:#000;fill-opacity:1;fill-rule:nonzero;stroke:none;stroke-width:2;marker:none;visibility:visible;display:inline;overflow:visible;filter:url(#filter4131-3);enable-background:accumulate" id="path4125" d="m 48,6.5 c -2.761424,0 -5,2.2385763 -5,5 0,2.761424 2.238576,5 5,5 2.761424,0 5,-2.238576 5,-5 0,-2.7614237 -2.238576,-5 -5,-5 z m 0,2 c 1.656854,0 3,1.3431458 3,3 0,1.656854 -1.343146,3 -3,3 -1.656854,0 -3,-1.343146 -3,-3 0,-1.6568542 1.343146,-3 3,-3 z"/><path id="path4120" d="m 48,6 c -2.761424,0 -5,2.2385763 -5,5 0,2.761424 2.238576,5 5,5 2.761424,0 5,-2.238576 5,-5 0,-2.7614237 -2.238576,-5 -5,-5 z m 0,2 c 1.656854,0 3,1.3431458 3,3 0,1.656854 -1.343146,3 -3,3 -1.656854,0 -3,-1.343146 -3,-3 0,-1.6568542 1.343146,-3 3,-3 z" style="color:#000;fill:#0f0;fill-opacity:1;fill-rule:nonzero;stroke:none;stroke-width:2;marker:none;visibility:visible;display:inline;overflow:visible;enable-background:accumulate"/></g></g><g id="layer1" style="display:inline"><path style="opacity:.05;color:#000;fill:#000;fill-opacity:1;fill-rule:nonzero;stroke:none;stroke-width:2;marker:none;visibility:visible;display:inline;overflow:visible;enable-background:accumulate" id="path4541" d="m 5,-0.9375 c -3.25586,0 -5.9375,2.68164 -5.9375,5.9375 l 0,12 c 0,3.25586 2.6816401,5.9375 5.9375,5.9375 l 24,0 c 3.25586,0 5.9375,-2.68164 5.9375,-5.9375 l 0,-12 c 0,-3.2558599 -2.68164,-5.9375 -5.9375,-5.9375 l -24,0 z"/><path style="opacity:.1;color:#000;fill:#000;fill-opacity:1;fill-rule:nonzero;stroke:none;stroke-width:2;marker:none;visibility:visible;display:inline;overflow:visible;enable-background:accumulate" id="path4537" d="M 5,0 C 2.2642981,0 0,2.2642981 0,5 l 0,12 c 0,2.735702 2.2642982,5 5,5 l 24,0 c 2.735702,0 5,-2.264298 5,-5 L 34,5 C 34,2.2642982 31.735702,0 29,0 L 5,0 z"/><path style="opacity:.2;color:#000;fill:#000;fill-opacity:1;fill-rule:nonzero;stroke:none;stroke-width:2;marker:none;visibility:visible;display:inline;overflow:visible;enable-background:accumulate" id="path4531" d="M 5,1.03125 C 2.8258474,1.03125 1.03125,2.8258474 1.03125,5 l 0,12 c 0,2.174153 1.7945974,3.96875 3.96875,3.96875 l 24,0 c 2.174153,0 3.96875,-1.794597 3.96875,-3.96875 l 0,-12 C 32.96875,2.8258474 31.174153,1.03125 29,1.03125 l -24,0 z"/><rect style="color:#000;fill:url(#linearGradient3228-0);fill-opacity:1;fill-rule:nonzero;stroke:none;stroke-width:2;marker:none;visibility:visible;display:inline;overflow:visible;enable-background:accumulate" id="rect3936" width="30" height="18" x="2" y="2" rx="3" ry="3"/><path style="opacity:.6;color:#000;fill:url(#linearGradient3077-4-9-4);fill-opacity:1;fill-rule:nonzero;stroke:none;stroke-width:2;marker:none;visibility:visible;display:inline;overflow:visible;enable-background:accumulate" id="rect4059" d="M 5,2 C 3.338,2 2,3.338 2,5 l 0,12 c 0,1.662 1.338,3 3,3 l 24,0 c 1.662,0 3,-1.338 3,-3 L 32,5 C 32,3.338 30.662,2 29,2 z m 0,1 24,0 c 1.12561,0 2,0.8743885 2,2 l 0,12 c 0,1.125612 -0.87439,2 -2,2 L 5,19 C 3.874388,19 3,18.125612 3,17 L 3,5 C 3,3.8743885 3.874388,3 5,3 z"/></g></svg>